<svg version="1.1" id="Layer_1" xmlns="http://www.w3.org/2000/svg" xmlns:xlink="http://www.w3.org/1999/xlink" x="0px" y="0px"
	 width="140%" viewBox="0 0 496 496" enable-background="new 0 0 496 496" xml:space="preserve">
<path fill="#ffffff" opacity="1.000000" stroke="none" 
	d="
M291.614258,277.875854 
	C291.969330,274.234650 290.778320,270.871918 293.766235,267.781494 
	C293.766235,274.649048 293.766235,281.516602 293.766235,288.287689 
	C297.775696,289.464081 300.843048,289.115295 304.689209,288.831573 
	C297.290192,283.265015 304.440308,273.943390 297.742279,268.271210 
	C300.271362,267.230377 300.543793,264.307312 303.183289,262.671906 
	C303.905121,266.781921 307.885101,266.486084 310.190918,268.146820 
	C310.047394,269.805481 309.102295,270.178040 308.061798,270.182953 
	C304.857697,270.198090 304.221802,272.156555 304.308380,274.826721 
	C304.384033,277.157654 304.296356,279.493683 304.360138,281.825317 
	C304.416595,283.889618 305.300201,285.470184 307.550293,285.550781 
	C309.480011,285.619843 311.720215,284.714996 311.403351,288.187866 
	C311.322754,289.071259 312.679596,289.053925 313.472900,288.913483 
	C315.394409,288.573303 314.969910,287.007965 314.972565,285.738861 
	C314.987457,278.572845 314.925049,271.406189 315.001648,264.240997 
	C315.021210,262.411407 314.513519,260.211487 317.139435,258.957977 
	C319.519104,261.923340 317.365082,265.581879 318.912323,268.674347 
	C320.517853,268.115692 322.021851,267.429901 323.600189,267.072327 
	C329.304688,265.779816 334.048187,269.279694 334.310425,275.124939 
	C334.510254,279.579498 334.350128,284.050140 334.350128,288.387390 
	C337.063385,289.441223 339.371735,289.020416 341.755096,288.843323 
	C342.146667,287.327972 340.616577,287.057373 340.082794,286.203217 
	C337.530518,282.119141 338.804504,278.217255 343.355011,276.678162 
	C344.450256,276.307709 345.671539,276.308350 346.764587,275.933441 
	C348.782623,275.241272 352.890686,277.359894 352.357239,273.258606 
	C351.826660,269.179657 347.900970,270.268036 344.982117,270.554443 
	C343.439423,270.705811 342.145355,272.547882 339.820068,270.892792 
	C341.902985,267.120605 345.537262,266.782959 348.977112,267.044800 
	C353.290924,267.373077 356.065521,269.965424 356.233856,274.502563 
	C356.405579,279.130859 356.271851,283.770508 356.271851,288.383514 
	C359.422211,289.497986 362.175568,289.201752 365.667419,288.664612 
	C358.985504,283.130646 366.844666,273.748108 359.051697,268.664429 
	C360.616669,266.670441 363.505768,265.990601 363.576050,262.689697 
	C365.932007,265.832123 368.748474,267.371094 372.062744,267.877136 
	C370.822357,271.228333 366.796234,269.151245 366.324158,272.132263 
	C365.750153,275.756958 365.693512,279.455017 366.293213,283.081635 
	C366.910034,286.811798 370.133789,285.286621 372.484985,285.587738 
	C372.357788,291.213867 376.025452,289.103149 379.569855,288.956482 
	C377.060852,286.854614 374.874451,284.987732 375.042175,282.024109 
	C375.231476,278.679047 377.519348,277.314941 380.518707,276.438232 
	C383.227112,275.646576 386.202698,276.625488 388.944305,275.002289 
	C389.178406,271.138916 386.938507,270.336334 383.672760,270.184753 
	C381.144073,270.067383 378.929749,272.533386 375.604584,271.159668 
	C378.729034,267.039642 382.379608,266.424744 386.439941,267.289917 
	C390.407288,268.135315 392.358307,270.721161 392.333466,274.804108 
	C392.314178,277.970398 392.333588,281.137268 392.377197,284.303314 
	C392.393158,285.462128 392.263916,286.718048 392.653290,287.760712 
	C394.748169,293.370056 394.797333,293.339691 388.477173,293.339996 
	C343.645874,293.342102 298.814606,293.349518 253.983322,293.355652 
	C253.316696,293.355743 252.642349,293.427368 251.984940,293.351013 
	C250.306259,293.156006 247.833694,294.009674 247.757965,291.214294 
	C247.691681,288.766785 250.014618,289.350037 251.524094,289.011627 
	C251.988342,288.907532 252.446701,288.777191 252.912582,288.657623 
	C250.889404,282.069885 251.464081,263.520660 253.776627,260.674988 
	C255.965042,261.492828 255.244659,263.426086 255.268738,264.935211 
	C255.353806,270.266876 255.471466,275.608917 255.229218,280.931213 
	C255.055984,284.736816 256.622070,286.079010 260.226898,285.717407 
	C261.711700,285.568481 263.224609,285.676727 264.724152,285.702179 
	C267.584656,285.750702 270.832336,284.822144 272.088654,289.350891 
	C274.065765,281.756989 271.774994,274.399078 274.014038,267.327393 
	C277.051331,268.488190 276.197968,270.430359 276.277130,271.919220 
	C276.418488,274.578217 276.328064,277.250275 276.312012,279.916748 
	C276.248688,290.444855 276.176392,288.667328 284.973053,289.115295 
	C290.099518,289.376343 292.060211,287.823334 291.588013,282.840729 
	C291.447357,281.356293 291.598114,279.844208 291.614258,277.875854 
M321.196442,289.059937 
	C323.345276,289.064331 325.494873,289.105774 327.642609,289.059479 
	C328.957214,289.031158 330.318787,289.004120 331.155334,287.685089 
	C332.378693,285.756287 331.502167,274.001251 329.969635,272.215942 
	C328.106140,270.045044 325.609375,269.825806 323.147614,270.533813 
	C320.331177,271.343842 318.376648,273.775543 318.602936,276.416473 
	C318.962769,280.614441 315.788788,285.434998 321.196442,289.059937 
M386.323547,285.135010 
	C388.014252,284.018402 389.912750,282.710449 389.047882,280.470093 
	C388.245758,278.392242 385.930878,279.154083 384.195099,279.063721 
	C383.386719,279.021606 382.535461,279.137543 381.755157,279.361359 
	C380.129883,279.827545 378.426178,280.492493 378.498779,282.519775 
	C378.577515,284.717896 380.218506,285.595123 382.210876,285.704468 
	C383.345978,285.766785 384.496887,285.541016 386.323547,285.135010 
M346.626434,285.756927 
	C351.124481,284.983643 353.854004,282.433685 352.355347,280.309235 
	C350.860626,278.190430 348.433807,279.057312 346.382721,279.184906 
	C344.508179,279.301514 342.640198,279.990204 342.469574,282.236877 
	C342.299255,284.479950 343.865326,285.400513 346.626434,285.756927 
z"/>
<path fill="#ffffff" opacity="1.000000" stroke="none" 
	d="
M284.032379,221.979019 
	C275.935120,230.280334 266.595734,234.607300 254.778519,231.276840 
	C250.609436,230.101898 246.501404,228.807129 242.531265,227.049820 
	C236.902557,224.558395 231.192795,222.272690 225.198151,220.767563 
	C223.074921,220.234482 221.047897,220.084106 218.218597,221.252808 
	C224.510681,227.984818 232.836212,229.108887 240.676559,232.768723 
	C236.092285,234.110458 232.228653,232.951385 228.327606,232.420334 
	C222.510284,231.628448 216.875015,230.199890 211.655411,227.530594 
	C208.167984,225.747162 204.968933,223.404800 205.663330,218.723816 
	C206.300400,214.429276 209.614700,212.757355 213.275345,211.794266 
	C221.602539,209.603455 229.752716,210.332962 237.657867,213.737717 
	C243.311447,216.172714 248.843628,218.942291 254.626801,221.012833 
	C267.338776,225.564072 277.256165,222.669922 285.847290,212.294983 
	C287.927704,209.782593 289.867401,207.153702 292.367676,204.890396 
	C290.879608,211.036209 287.544586,216.211777 284.115143,221.702637 
	C284.002014,222.008820 284.032379,221.979019 284.032379,221.979019 
z"/>
<path fill="#ffffff" opacity="1.000000" stroke="none" 
	d="
M283.989410,222.026001 
	C285.830566,220.697128 287.471741,219.125031 290.187073,219.676346 
	C306.331085,222.954285 322.277283,226.812088 336.932526,234.700653 
	C337.625732,235.073792 338.224335,235.622604 338.844757,236.073456 
	C338.137543,237.765335 337.116364,236.999390 336.300598,236.705780 
	C320.432739,230.994690 303.978516,228.055328 287.271637,226.324982 
	C284.982513,226.087891 282.630737,226.115692 283.945068,222.329239 
	C284.032379,221.979019 284.002014,222.008820 283.989410,222.026001 
z"/>
<path fill="#ffffff" opacity="1.000000" stroke="none" 
	d="
M261.978210,183.620514 
	C262.925781,195.517899 252.275406,209.865280 242.267853,210.728668 
	C242.186554,208.887787 243.873306,208.350571 244.812271,207.290955 
	C249.781219,201.683624 252.633789,195.328812 251.455826,187.694290 
	C250.962692,184.498230 250.870590,181.431396 254.295074,180.080368 
	C257.497375,178.816986 260.117584,180.239944 261.978210,183.620514 
z"/>
<path fill="#ffffff" opacity="1.000000" stroke="none" 
	d="
M231.321411,177.016449 
	C231.640533,180.883942 228.890594,183.171814 228.043457,186.166275 
	C227.055298,189.659210 225.820923,193.148590 226.824432,196.883240 
	C227.708115,200.171921 228.569550,203.466599 229.562790,207.219574 
	C226.580200,206.304840 225.252655,204.101013 224.093079,202.097794 
	C219.802963,194.686447 218.049805,186.725555 219.773376,178.188568 
	C220.397278,175.098328 222.164566,173.091629 225.403687,172.757141 
	C228.338028,172.454132 230.724075,173.178314 231.321411,177.016449 
z"/>
<path fill="#ffffff" opacity="1.000000" stroke="none" 
	d="
M166.804840,267.802307 
	C173.134384,271.709106 174.988937,277.416351 172.165787,283.243591 
	C169.453415,288.842163 164.325531,290.091736 156.134995,287.067657 
	C153.950851,289.533661 156.712006,293.352814 154.000198,295.715210 
	C151.425110,293.323303 150.673569,274.056976 152.962234,267.378235 
	C157.375824,270.381348 161.878403,264.903168 166.804840,267.802307 
M158.338455,271.711365 
	C154.697708,275.870667 154.220108,279.982361 157.198975,283.173279 
	C159.930481,286.099213 163.160873,286.642700 166.604843,284.417206 
	C169.894608,282.291382 170.894287,277.984467 169.075821,274.270721 
	C167.179001,270.397003 164.177490,269.510651 158.338455,271.711365 
z"/>
<path fill="#ffffff" opacity="1.000000" stroke="none" 
	d="
M251.120941,174.900696 
	C248.618500,182.271759 242.494034,184.726669 237.875717,180.512482 
	C235.371796,178.227676 234.219162,175.398392 235.489273,171.987473 
	C236.710068,168.708939 238.990219,166.847748 242.574677,166.705078 
	C246.084152,166.565399 248.721283,167.926041 250.189728,171.173080 
	C250.660324,172.213638 250.831894,173.389450 251.120941,174.900696 
z"/>
<path fill="#ffffff" opacity="1.000000" stroke="none" 
	d="
M110.601700,270.362274 
	C110.293358,260.024170 110.295036,259.911865 120.481735,260.064240 
	C123.372429,260.107422 126.725136,258.675964 129.461472,261.806366 
	C126.385803,264.484924 122.956665,262.887848 119.861496,263.255249 
	C117.587372,263.525208 115.030838,263.062469 113.716942,265.614624 
	C111.821503,269.296417 113.801758,272.351410 118.017151,272.698517 
	C121.166359,272.957825 124.541969,271.777039 127.922836,273.899414 
	C125.076057,277.018158 121.822304,275.717926 118.923775,275.654083 
	C114.686356,275.560791 112.920799,277.182312 113.260002,281.588654 
	C113.488785,284.560638 114.538773,285.644501 117.477997,285.749298 
	C121.502724,285.892731 125.662605,284.866058 130.203415,286.771637 
	C126.911522,289.548645 123.531052,288.284821 120.511230,288.325531 
	C110.007820,288.467285 110.017525,288.359497 110.477692,277.778137 
	C110.578827,275.452576 110.569695,273.122253 110.601700,270.362274 
z"/>
<path fill="#ffffff" opacity="1.000000" stroke="none" 
	d="
M193.249847,284.586243 
	C193.157761,285.523499 193.248413,286.142151 192.983200,286.487244 
	C190.295761,289.984039 178.163422,288.998352 176.242416,285.160187 
	C174.538010,281.754791 176.056808,277.962189 179.841019,276.778748 
	C181.711273,276.193909 183.754654,276.157959 185.721832,275.889191 
	C187.268326,275.677887 189.472000,276.243347 189.338333,273.684357 
	C189.231216,271.633423 187.748047,270.654358 185.691940,270.239594 
	C182.660797,269.628143 180.143250,272.282806 176.002823,271.427795 
	C178.418808,267.546051 181.784927,266.959503 185.002319,266.945740 
	C189.319885,266.927246 192.342758,269.334808 192.948120,273.705292 
	C193.422836,277.132751 193.187378,280.658569 193.249847,284.586243 
M182.849258,285.721344 
	C184.741089,285.880829 186.496262,285.499542 187.950821,284.234344 
	C189.123795,283.214050 190.210724,281.844574 189.265839,280.362671 
	C187.833878,278.116852 185.372742,279.129730 183.328888,279.180023 
	C181.461899,279.225922 179.494156,279.796387 179.043259,281.887482 
	C178.561234,284.123047 180.199097,285.111847 182.849258,285.721344 
z"/>
<path fill="#ffffff" opacity="1.000000" stroke="none" 
	d="
M203.274536,224.694000 
	C201.172607,229.947845 198.232742,231.728531 194.199951,230.588623 
	C190.267883,229.477188 188.015106,225.957382 188.798706,221.735977 
	C189.582214,217.515030 192.281555,215.505463 196.586166,215.715729 
	C201.165009,215.939377 203.064621,218.365051 203.274536,224.694000 
z"/>
<path fill="#ffffff" opacity="1.000000" stroke="none" 
	d="
M221.438293,286.767273 
	C216.454742,281.432556 215.660156,276.995361 218.556915,272.165314 
	C220.975998,268.131653 225.671768,266.110962 230.091660,267.216766 
	C234.327896,268.276611 237.275970,270.809967 238.121643,275.144958 
	C238.996521,279.629608 238.233261,283.957581 234.391403,286.857941 
	C230.374466,289.890442 225.991257,289.314026 221.438293,286.767273 
M220.809555,275.480652 
	C219.512192,279.784210 220.818222,283.144379 224.842590,285.046509 
	C228.327515,286.693726 231.383453,285.493683 233.627625,282.490265 
	C236.261017,278.966003 235.436295,273.843475 231.981064,271.437744 
	C228.412766,268.953278 224.272964,270.233551 220.809555,275.480652 
z"/>
<path fill="#ffffff" opacity="1.000000" stroke="none" 
	d="
M200.726685,274.967712 
	C199.723373,279.453613 200.465103,282.833466 204.559845,285.031036 
	C208.274704,287.024719 211.374695,283.942780 215.061554,283.452026 
	C213.754120,287.225006 213.754120,287.225006 209.368927,289.383118 
	C209.994232,291.486786 211.878235,293.975555 209.241776,295.912384 
	C207.412796,297.256012 205.338074,297.738739 203.432800,295.704407 
	C203.922897,293.647278 206.364761,295.391693 207.165314,293.338593 
	C205.727234,291.232971 204.497650,288.785431 201.797272,287.139740 
	C197.531204,284.539825 195.978333,280.378876 197.028473,275.517670 
	C198.032822,270.868439 200.947891,267.796814 205.763550,267.127136 
	C209.656403,266.585724 213.226685,267.251373 215.741730,272.480408 
	C209.849213,270.832092 204.302383,267.884094 200.726685,274.967712 
z"/>
<path fill="#ffffff" opacity="1.000000" stroke="none" 
	d="
M144.326050,277.506531 
	C147.640961,278.797028 148.718094,281.030792 148.180786,284.015167 
	C147.607529,287.199249 145.160614,288.083130 142.348007,288.497589 
	C137.256470,289.247772 134.279572,288.264618 132.022171,284.823151 
	C134.630722,283.200439 136.675125,285.850677 139.020233,285.693237 
	C141.154037,285.549957 143.815872,286.138550 144.488281,283.445251 
	C145.276627,280.287506 142.219070,280.415649 140.356232,279.658325 
	C139.898254,279.472137 139.388931,279.416290 138.910141,279.276794 
	C133.312332,277.645721 131.228455,275.252625 132.324631,271.721985 
	C133.456696,268.075714 138.079178,266.044464 142.749435,267.257294 
	C144.401794,267.686371 146.409897,267.820770 146.967392,270.297028 
	C144.568146,271.755798 142.391205,269.899231 140.194244,270.178345 
	C138.297974,270.419220 136.286728,270.547668 135.773605,272.669556 
	C135.147400,275.259033 137.480728,275.486145 139.155289,276.034302 
	C140.730606,276.549957 142.351425,276.926575 144.326050,277.506531 
z"/>
<path fill="#ffffff" opacity="1.000000" stroke="none" 
	d="
M262.509277,312.970795 
	C263.686493,312.612488 264.598907,312.718628 265.006317,313.520325 
	C267.525452,318.477356 270.107788,323.415680 271.981812,329.147339 
	C268.270355,329.432251 267.156799,325.649567 263.736572,325.770569 
	C260.361877,325.889923 258.629578,328.195068 255.505051,329.064484 
	C256.989594,323.386658 259.372406,318.173950 262.509277,312.970795 
z"/>
<path fill="#ffffff" opacity="1.000000" stroke="none" 
	d="
M189.954010,312.715393 
	C196.886429,311.870972 200.890274,314.420990 201.764374,319.913086 
	C202.454758,324.250763 199.434814,328.662994 195.107971,329.638275 
	C190.250992,330.733093 185.554321,328.101196 184.205383,323.253021 
	C182.808868,318.233917 185.285797,315.000610 189.954010,312.715393 
M187.208298,319.897156 
	C186.790619,323.284698 187.858932,325.861450 191.437408,326.584839 
	C194.500229,327.203949 197.103928,326.178986 198.257080,323.090515 
	C199.382675,320.075897 198.500000,317.388641 195.531494,316.022461 
	C191.954361,314.376129 189.150146,315.617889 187.208298,319.897156 
z"/>
<path fill="#ffffff" opacity="1.000000" stroke="none" 
	d="
M251.205292,326.563812 
	C251.656738,327.716553 252.584824,328.787506 250.908997,329.126068 
	C250.404419,329.227966 249.683548,328.753021 249.196198,328.370880 
	C243.741516,324.093292 243.748581,324.084290 239.175323,330.418701 
	C238.416031,324.142120 237.430771,318.650848 239.450714,314.113251 
	C240.893890,310.871277 245.838226,312.205566 248.992371,313.274261 
	C252.315491,314.400208 252.834000,317.570282 251.983337,320.782928 
	C251.504059,322.593079 249.483383,324.113678 251.205292,326.563812 
M243.875809,321.668091 
	C246.278519,321.789825 248.604340,321.677795 249.253021,318.716858 
	C249.540771,317.403503 248.729584,316.511414 247.532272,316.116302 
	C245.578171,315.471466 243.474136,315.294525 242.126953,317.069489 
	C240.910477,318.672211 241.027618,320.461365 243.875809,321.668091 
z"/>
<path fill="#ffffff" opacity="1.000000" stroke="none" 
	d="
M301.769623,329.476624 
	C298.874939,328.921021 294.825195,331.179504 294.192963,327.270874 
	C293.451508,322.687012 291.833771,317.032349 295.189789,313.456635 
	C297.250519,311.261017 302.135162,311.805267 305.870270,313.302185 
	C304.691223,315.759460 302.768433,315.005798 301.258270,315.370758 
	C299.687958,315.750275 297.538757,315.705872 297.623077,317.935913 
	C297.703949,320.073273 299.752136,319.512024 301.146454,319.666626 
	C302.280975,319.792419 303.501831,319.559418 304.448792,320.593262 
	C304.260254,322.897095 302.393127,322.211578 301.088348,322.347198 
	C299.406677,322.521912 297.393616,322.418152 297.506287,324.751740 
	C297.622498,327.157745 299.814575,326.570251 301.369812,326.791931 
	C302.920258,327.012909 304.761993,326.294647 305.867615,328.133636 
	C305.225861,330.288940 303.502075,329.385834 301.769623,329.476624 
z"/>
<path fill="#ffffff" opacity="1.000000" stroke="none" 
	d="
M358.350769,328.562347 
	C354.167023,324.312775 350.980164,324.472839 345.190613,329.220367 
	C343.649353,326.015289 346.123383,323.867523 347.122009,321.599884 
	C348.473053,318.532013 348.785431,313.393341 352.368744,313.327637 
	C356.007568,313.260895 356.045502,318.565582 357.799988,321.419861 
	C358.834290,323.102570 359.562927,325.002319 360.218811,326.877991 
	C360.645294,328.097656 360.565186,329.339935 358.350769,328.562347 
M354.014099,322.070953 
	C354.502838,320.267090 353.860535,319.010681 351.947113,318.013702 
	C351.003906,320.187317 348.125092,322.678497 354.014099,322.070953 
z"/>
<path fill="#ffffff" opacity="1.000000" stroke="none" 
	d="
M322.178040,321.122375 
	C322.932434,318.315399 321.851654,315.464722 324.491577,312.432129 
	C325.635956,317.664154 326.089691,322.013458 324.469360,326.171570 
	C322.757629,330.564209 316.652130,331.287262 313.180634,327.803864 
	C310.257294,324.870422 309.937134,316.870453 312.722015,313.015350 
	C315.258881,315.326385 313.986572,318.317444 314.176788,320.941711 
	C314.382050,323.774048 314.550171,326.500671 318.206482,326.663513 
	C321.762939,326.821838 322.012207,324.165497 322.178040,321.122375 
z"/>
<path fill="#ffffff" opacity="1.000000" stroke="none" 
	d="
M162.787628,326.497742 
	C165.043655,326.721497 167.147858,327.522736 168.340576,325.124451 
	C168.006516,322.927368 166.180008,322.789642 164.658752,322.267273 
	C162.239563,321.436615 159.882767,320.554535 159.712952,317.425293 
	C159.599915,315.342041 160.519028,313.677368 162.423019,313.118958 
	C165.344696,312.262085 168.463776,311.461578 171.129623,314.764984 
	C168.406723,316.474518 164.717529,313.892029 162.868546,317.100250 
	C163.385239,319.301849 165.285446,319.242584 166.753754,319.825409 
	C169.592606,320.952209 172.665802,322.013153 171.655151,326.047546 
	C170.846466,329.275726 166.864578,330.750000 162.919922,329.449066 
	C161.519974,328.987396 159.995239,328.599243 159.823685,326.753601 
	C160.584320,325.401978 161.542114,326.178497 162.787628,326.497742 
z"/>
<path fill="#ffffff" opacity="1.000000" stroke="none" 
	d="
M224.841736,312.630066 
	C227.876877,313.049744 230.776382,311.311615 233.371887,313.595673 
	C231.222061,316.823578 225.884674,313.475494 224.755768,318.079773 
	C226.347260,321.302917 230.325012,318.138123 232.200180,321.049377 
	C230.912140,323.017487 228.909058,322.123657 227.279114,322.328766 
	C225.788330,322.516388 224.608505,323.039978 224.579422,324.660370 
	C224.547012,326.466492 225.976349,326.572021 227.367065,326.750427 
	C229.407379,327.012085 231.713120,326.055450 233.481506,327.932129 
	C230.923477,329.810425 223.548264,330.105225 222.227371,328.427551 
	C220.350342,326.043579 221.987000,314.145477 224.841736,312.630066 
z"/>
<path fill="#ffffff" opacity="1.000000" stroke="none" 
	d="
M277.630951,328.904816 
	C275.209412,329.119263 275.635742,327.417908 275.594482,326.233917 
	C275.507690,323.744263 275.437469,321.227905 275.705750,318.760040 
	C275.933044,316.669037 274.340759,313.516876 277.589203,312.819611 
	C280.759064,312.139191 284.290131,311.755035 287.124084,314.155151 
	C289.058929,315.793823 289.727966,318.012146 288.839050,320.470673 
	C287.893799,323.084961 286.003601,324.711517 283.158905,324.388000 
	C279.739838,323.999207 278.242920,325.547821 277.630951,328.904816 
M285.787659,317.188385 
	C284.962219,315.673889 283.630096,315.215454 282.026184,315.491180 
	C280.563690,315.742615 278.983215,315.962341 278.547485,317.746216 
	C278.273712,318.867065 278.106506,320.118866 279.084747,320.992218 
	C280.338593,322.111664 281.926178,321.832123 283.321136,321.425873 
	C285.014069,320.932831 286.161469,319.779938 285.787659,317.188385 
z"/>
<path fill="#ffffff" opacity="1.000000" stroke="none" 
	d="
M285.341736,272.009949 
	C285.117035,277.623474 285.865143,282.831818 284.615906,288.668549 
	C281.118073,284.309998 281.101166,262.810913 284.252472,258.786316 
	C286.197601,263.124512 284.915131,267.420074 285.341736,272.009949 
z"/>
<path fill="#ffffff" opacity="1.000000" stroke="none" 
	d="
M143.487793,322.983215 
	C138.591080,322.462036 138.260742,326.223785 137.000549,329.406311 
	C135.139877,324.171082 135.617371,319.194061 135.996796,314.236389 
	C136.068039,313.305664 136.935944,312.825287 137.789932,312.808014 
	C140.860947,312.745880 143.933960,312.783630 147.494812,312.783630 
	C146.316895,316.028137 143.943619,314.877106 142.285599,315.292053 
	C140.741074,315.678589 138.621292,315.269409 138.519592,317.634247 
	C138.410767,320.164368 140.504211,319.792084 142.104782,319.918549 
	C143.409195,320.021576 144.788940,319.801575 145.871933,320.885284 
	C146.322739,322.671143 144.921478,322.641724 143.487793,322.983215 
z"/>
<path fill="#ffffff" opacity="1.000000" stroke="none" 
	d="
M181.474091,227.436218 
	C184.353745,226.514755 187.020630,225.349487 188.015518,229.903793 
	C179.775238,232.314743 171.651657,234.691528 162.528976,237.360641 
	C165.103546,233.455185 168.522369,232.787430 171.479340,231.482742 
	C174.650818,230.083405 177.904083,228.869461 181.474091,227.436218 
z"/>
<path fill="#ffffff" opacity="1.000000" stroke="none" 
	d="
M334.578125,319.327515 
	C335.288818,314.911377 330.971863,315.903748 329.141876,313.624329 
	C333.712463,311.783478 337.908295,312.783081 342.544037,313.384003 
	C333.401031,316.116394 339.347748,324.380371 336.067322,329.793091 
	C332.871948,326.416779 335.306183,322.824341 334.578125,319.327515 
z"/>
<path fill="#ffffff" opacity="1.000000" stroke="none" 
	d="
M209.526627,317.818817 
	C209.122147,314.665588 205.546631,316.057556 204.525208,313.258667 
	C209.080139,312.056244 213.378860,312.695221 218.234299,313.364929 
	C208.281876,315.724060 214.184250,324.068054 211.154556,329.938629 
	C208.649551,325.738495 210.089783,321.808868 209.526627,317.818817 
z"/>
<path fill="#ffffff" opacity="1.000000" stroke="none" 
	d="
M176.498093,323.865784 
	C176.243637,320.005859 175.399551,316.438660 178.587723,312.128265 
	C179.657257,318.641083 179.465042,323.874084 178.929993,329.669739 
	C175.380432,328.199707 176.811920,325.948822 176.498093,323.865784 
z"/>
<path fill="#ffffff" opacity="1.000000" stroke="none" 
	d="
M151.442780,315.384644 
	C151.592224,313.781525 151.835724,312.648315 154.120850,313.165863 
	C154.442795,318.381989 154.618011,323.690643 154.066025,328.978729 
	C153.397858,329.008362 152.729706,329.037994 152.061539,329.067627 
	C151.857941,324.632660 151.654343,320.197693 151.442780,315.384644 
z"/>
<path fill="#ffffff" opacity="1.000000" stroke="none" 
	d="
M389.354187,260.238495 
	C387.912720,262.948608 385.873718,264.534424 382.664856,264.320770 
	C384.008362,261.682892 385.085144,258.701782 389.354187,260.238495 
z"/>
</svg>